<svg width="382" height="683" viewBox="0 0 382 683" fill="none" xmlns="http://www.w3.org/2000/svg">
<g clip-path="url(#clip0_33_44)">
<path d="M115.81 682C115.81 682.66 116.34 683.19 117 683.19H380.59C381.25 683.19 381.78 682.66 381.78 682C381.78 681.34 381.25 680.81 380.59 680.81H117C116.34 680.81 115.81 681.34 115.81 682Z" fill="#3F3D58"/>
<path d="M211.64 348.65L208.59 356.28C208.59 356.28 205.78 366.96 209.07 371.22C212.36 375.48 213.09 408.09 209.56 410.5C206.02 412.91 254.38 388.17 254.38 388.17C254.38 388.17 235.5 344.39 235.18 344.23C234.86 344.07 222.49 340.21 222.49 340.21L211.65 348.64L211.64 348.65Z" fill="#2F2E43"/>
<path d="M243.12 386.36L226.92 391.69V368.37H241.62L243.12 386.36Z" fill="#F6A6A9"/>
<path d="M193.6 518.76C192.72 524.1 189.16 527.93 185.64 527.32C182.12 526.7 179.98 521.87 180.86 516.53C181.18 514.39 182.03 512.37 183.33 510.63L187.35 488.04L198.28 490.33L193.16 512.35C193.83 514.43 193.99 516.63 193.6 518.76Z" fill="#F6A6A9"/>
<path d="M237.04 647.44H221.86V668.97H237.04V647.44Z" fill="#F6A6A9"/>
<path d="M207.08 682C205.48 682 204.06 681.96 202.99 681.86C198.96 681.49 195.11 678.52 193.18 676.78C192.31 676 192.03 674.75 192.49 673.68C192.81 672.91 193.46 672.33 194.27 672.1L204.92 669.06L222.17 657.42L222.36 657.76C222.43 657.89 224.13 660.94 224.69 663C224.91 663.78 224.85 664.44 224.52 664.94C224.29 665.29 223.98 665.49 223.72 665.61C224.03 665.94 225.01 666.6 228.02 667.08C232.42 667.78 233.34 663.22 233.38 663.03L233.41 662.88L233.54 662.8C235.63 661.45 236.92 660.84 237.37 660.97C237.65 661.05 238.11 661.19 239.36 673.61C239.49 674 240.36 676.86 239.77 679.59C239.12 682.56 226.14 681.54 223.54 681.3C223.47 681.3 213.74 682 207.08 682Z" fill="#2F2E43"/>
<path d="M280.242 630.514L267.362 638.547L278.755 656.815L291.636 648.782L280.242 630.514Z" fill="#F6A6A9"/>
<path d="M263.14 679.05C261.36 679.05 259.72 678.84 258.56 678.63C257.41 678.43 256.52 677.52 256.33 676.37C256.2 675.54 256.44 674.71 257 674.09L264.43 665.87L272.91 646.87L273.26 647.06C273.39 647.13 276.44 648.82 278.01 650.27C278.61 650.82 278.91 651.41 278.89 652.01C278.89 652.43 278.72 652.77 278.57 653C279.01 653.11 280.19 653.16 283 651.97C287.1 650.24 285.48 645.88 285.4 645.69L285.34 645.55L285.41 645.41C286.47 643.16 287.24 641.95 287.69 641.83C287.97 641.75 288.44 641.63 296.07 651.5C296.38 651.76 298.64 653.72 299.58 656.36C300.6 659.23 289.04 665.23 286.72 666.4C286.65 666.46 274.55 675.25 269.59 677.75C267.62 678.74 265.29 679.05 263.16 679.05H263.14Z" fill="#2F2E43"/>
<path d="M248.21 467.41H205.73L201.87 506.93L218.74 652.95H240.43L231.76 568.61L266.94 644.75L286.22 631.26L258.75 560.18C258.75 560.18 268.56 498.25 260.85 482.83C253.14 467.41 248.22 467.41 248.22 467.41H248.21Z" fill="#2F2E43"/>
<path d="M269.34 469.82H195.6L222.11 382.59H251.51L269.34 469.82Z" fill="#E6E6E6"/>
<path d="M226.75 382.6C226.75 382.6 208.44 382.12 206.51 386.94C204.58 391.76 181.93 506.46 181.93 506.46H196.87L226.75 382.6Z" fill="#E6E6E6"/>
<path d="M228.93 374.82C237.844 374.82 245.07 367.594 245.07 358.68C245.07 349.766 237.844 342.54 228.93 342.54C220.016 342.54 212.79 349.766 212.79 358.68C212.79 367.594 220.016 374.82 228.93 374.82Z" fill="#F6A6A9"/>
<path d="M232.06 333.6C232.06 333.6 251.5 328.62 257.44 354.48C257.44 354.48 257.6 361.23 260.97 363.96C264.34 366.69 263.22 380.83 263.22 380.83C263.22 380.83 269.65 391.43 264.18 396.25C264.18 396.25 261.77 406.05 265.3 411.67C268.83 417.29 282.17 448.22 260 450.1C260 450.1 248.76 443.31 254.06 423.07C259.36 402.83 253.42 391.65 253.42 391.65C253.42 391.65 236.39 385.48 237.36 372.3C238.32 359.13 226.44 346.12 225.63 346.28C224.82 346.44 216.47 341.62 212.78 356.4L208.82 355.73C208.82 355.73 207.16 330.86 232.06 333.59V333.6Z" fill="#2F2E43"/>
<path d="M281.92 516.16C283 521.47 281.03 526.31 277.52 526.99C274.01 527.66 270.3 523.91 269.22 518.6C268.76 516.49 268.83 514.29 269.43 512.21L265.16 489.67L276.19 487.93L279.22 510.34C280.59 512.05 281.51 514.05 281.91 516.18L281.92 516.16Z" fill="#F6A6A9"/>
<path d="M238.66 382.7C238.66 382.7 254.79 380.66 256.72 385.48C258.65 390.3 281.3 505 281.3 505H266.36L238.67 382.71L238.66 382.7Z" fill="#E6E6E6"/>
<path d="M103.34 211.83H24.74C14.61 211.83 6.35999 203.59 6.35999 193.45V114.85C6.35999 104.72 14.6 96.47 24.74 96.47H103.34C113.47 96.47 121.72 104.71 121.72 114.85V193.45C121.72 203.58 113.48 211.83 103.34 211.83ZM24.74 98.47C15.71 98.47 8.35999 105.82 8.35999 114.85V193.45C8.35999 202.48 15.71 209.83 24.74 209.83H103.34C112.37 209.83 119.72 202.48 119.72 193.45V114.85C119.72 105.82 112.37 98.47 103.34 98.47H24.74Z" fill="#CCCCCC"/>
<path d="M120.72 124.91C133.594 124.91 144.03 114.474 144.03 101.6C144.03 88.7262 133.594 78.29 120.72 78.29C107.846 78.29 97.41 88.7262 97.41 101.6C97.41 114.474 107.846 124.91 120.72 124.91Z" fill="#F0BBBB"/>
<path d="M90.4 235.83H43.51C39.84 235.83 36.86 232.85 36.86 229.18C36.86 225.51 39.84 222.53 43.51 222.53H90.4C94.07 222.53 97.05 225.51 97.05 229.18C97.05 232.85 94.07 235.83 90.4 235.83Z" fill="#E6E6E6"/>
<path d="M103.34 427.9H24.74C14.61 427.9 6.35999 419.66 6.35999 409.52V330.92C6.35999 320.79 14.6 312.54 24.74 312.54H103.34C113.47 312.54 121.72 320.78 121.72 330.92V409.52C121.72 419.65 113.48 427.9 103.34 427.9ZM24.74 314.54C15.71 314.54 8.35999 321.89 8.35999 330.92V409.52C8.35999 418.55 15.71 425.9 24.74 425.9H103.34C112.37 425.9 119.72 418.55 119.72 409.52V330.92C119.72 321.89 112.37 314.54 103.34 314.54H24.74Z" fill="#CCCCCC"/>
<path d="M90.4 451.89H43.51C39.84 451.89 36.86 448.91 36.86 445.24C36.86 441.57 39.84 438.59 43.51 438.59H90.4C94.07 438.59 97.05 441.57 97.05 445.24C97.05 448.91 94.07 451.89 90.4 451.89Z" fill="#E6E6E6"/>
<path d="M274.03 211.83H195.43C185.3 211.83 177.05 203.59 177.05 193.45V114.85C177.05 104.72 185.29 96.47 195.43 96.47H274.03C284.16 96.47 292.41 104.71 292.41 114.85V193.45C292.41 203.58 284.17 211.83 274.03 211.83ZM195.43 98.47C186.4 98.47 179.05 105.82 179.05 114.85V193.45C179.05 202.48 186.4 209.83 195.43 209.83H274.03C283.06 209.83 290.41 202.48 290.41 193.45V114.85C290.41 105.82 283.06 98.47 274.03 98.47H195.43Z" fill="#CCCCCC"/>
<path d="M261.08 235.83H214.19C210.52 235.83 207.54 232.85 207.54 229.18C207.54 225.51 210.52 222.53 214.19 222.53H261.08C264.75 222.53 267.73 225.51 267.73 229.18C267.73 232.85 264.75 235.83 261.08 235.83Z" fill="#E6E6E6"/>
<path d="M82.72 519.44C85.8791 519.44 88.44 516.879 88.44 513.72C88.44 510.561 85.8791 508 82.72 508C79.5609 508 77 510.561 77 513.72C77 516.879 79.5609 519.44 82.72 519.44Z" fill="#F0BBBB"/>
<path d="M99.68 519.44C102.839 519.44 105.4 516.879 105.4 513.72C105.4 510.561 102.839 508 99.68 508C96.5209 508 93.96 510.561 93.96 513.72C93.96 516.879 96.5209 519.44 99.68 519.44Z" fill="#E6E6E6"/>
<path d="M116.64 519.44C119.799 519.44 122.36 516.879 122.36 513.72C122.36 510.561 119.799 508 116.64 508C113.481 508 110.92 510.561 110.92 513.72C110.92 516.879 113.481 519.44 116.64 519.44Z" fill="#E6E6E6"/>
</g>
<defs>
<clipPath id="clip0_33_44">
<rect width="382" height="683" fill="white"/>
</clipPath>
</defs>
</svg>
