<svg width="21" height="21" viewBox="0 0 21 21" fill="none" xmlns="http://www.w3.org/2000/svg">
<rect width="21" height="21" rx="5" fill="#F0BBBB"/>
<path d="M12.4688 17.0625C12.4687 17.5846 12.2613 18.0854 11.8921 18.4546C11.5229 18.8238 11.0221 19.0312 10.5 19.0312C9.97786 19.0312 9.4771 18.8238 9.10788 18.4546C8.73867 18.0854 8.53125 17.5846 8.53125 17.0625C8.53125 16.5404 8.73867 16.0396 9.10788 15.6704C9.4771 15.3012 9.97786 15.0938 10.5 15.0938C11.0221 15.0938 11.5229 15.3012 11.8921 15.6704C12.2613 16.0396 12.4688 16.5404 12.4688 17.0625ZM12.4688 10.5C12.4687 11.0221 12.2613 11.5229 11.8921 11.8921C11.5229 12.2613 11.0221 12.4687 10.5 12.4688C9.97786 12.4687 9.4771 12.2613 9.10788 11.8921C8.73867 11.5229 8.53125 11.0221 8.53125 10.5C8.53125 9.97786 8.73867 9.4771 9.10788 9.10788C9.4771 8.73867 9.97786 8.53125 10.5 8.53125C11.0221 8.53125 11.5229 8.73867 11.8921 9.10788C12.2613 9.4771 12.4688 9.97786 12.4688 10.5ZM12.4688 3.9375C12.4687 4.45964 12.2613 4.9604 11.8921 5.32962C11.5229 5.69883 11.0221 5.90625 10.5 5.90625C9.97786 5.90625 9.4771 5.69883 9.10788 5.32962C8.73867 4.9604 8.53125 4.45964 8.53125 3.9375C8.53125 3.41536 8.73867 2.9146 9.10788 2.54538C9.4771 2.17617 9.97786 1.96875 10.5 1.96875C11.0221 1.96875 11.5229 2.17617 11.8921 2.54538C12.2613 2.9146 12.4688 3.41536 12.4688 3.9375Z" fill="black"/>
</svg>
